<svg xmlns="http://www.w3.org/2000/svg" viewBox="0 0 900 500" role="img"><rect width="100%" height="100%" fill="white"/><text x="450.0" y="28" text-anchor="middle" font-family="Arial" font-size="22" font-weight="bold">Rotary-arm reference tracking</text><rect x="75" y="55" width="795" height="380" fill="none" stroke="#333"/><line x1="75.0" y1="55" x2="75.0" y2="435" stroke="#ddd"/><line x1="75" y1="55.0" x2="870" y2="55.0" stroke="#ddd"/><text x="75.0" y="457" text-anchor="middle" font-family="Arial" font-size="12">0</text><text x="65" y="59.0" text-anchor="end" font-family="Arial" font-size="12">1.1</text><line x1="234.0" y1="55" x2="234.0" y2="435" stroke="#ddd"/><line x1="75" y1="131.0" x2="870" y2="131.0" stroke="#ddd"/><text x="234.0" y="457" text-anchor="middle" font-family="Arial" font-size="12">1.2</text><text x="65" y="135.0" text-anchor="end" font-family="Arial" font-size="12">0.85</text><line x1="393.0" y1="55" x2="393.0" y2="435" stroke="#ddd"/><line x1="75" y1="207.0" x2="870" y2="207.0" stroke="#ddd"/><text x="393.0" y="457" text-anchor="middle" font-family="Arial" font-size="12">2.3</text><text x="65" y="211.0" text-anchor="end" font-family="Arial" font-size="12">0.62</text><line x1="552.0" y1="55" x2="552.0" y2="435" stroke="#ddd"/><line x1="75" y1="283.0" x2="870" y2="283.0" stroke="#ddd"/><text x="552.0" y="457" text-anchor="middle" font-family="Arial" font-size="12">3.5</text><text x="65" y="287.0" text-anchor="end" font-family="Arial" font-size="12">0.38</text><line x1="711.0" y1="55" x2="711.0" y2="435" stroke="#ddd"/><line x1="75" y1="359.0" x2="870" y2="359.0" stroke="#ddd"/><text x="711.0" y="457" text-anchor="middle" font-family="Arial" font-size="12">4.6</text><text x="65" y="363.0" text-anchor="end" font-family="Arial" font-size="12">0.15</text><line x1="870.0" y1="55" x2="870.0" y2="435" stroke="#ddd"/><line x1="75" y1="435.0" x2="870" y2="435.0" stroke="#ddd"/><text x="870.0" y="457" text-anchor="middle" font-family="Arial" font-size="12">5.8</text><text x="65" y="439.0" text-anchor="end" font-family="Arial" font-size="12">-0.08</text><polyline points="75.0,408.8 108.1,407.3 141.2,398.2 174.4,377.6 207.5,345.1 240.6,302.9 273.8,254.8 306.9,205.7 340.0,160.6 373.1,123.9 406.2,98.6 439.4,85.1 472.5,81.3 505.6,81.2 538.8,81.2 571.9,81.2 605.0,81.2 638.1,81.2 671.2,81.2 704.4,81.2 737.5,81.2 770.6,81.2 803.8,81.2 836.9,81.2 870.0,81.2" fill="none" stroke="#444444" stroke-width="2.2"/><polyline points="75.0,408.8 108.1,408.0 141.2,400.9 174.4,382.3 207.5,351.4 240.6,310.3 273.8,262.8 306.9,213.7 340.0,168.0 373.1,130.1 406.2,103.2 439.4,88.3 472.5,83.5 505.6,83.4 538.8,83.0 571.9,82.3 605.0,83.5 638.1,85.5 671.2,84.9 704.4,83.5 737.5,82.4 770.6,81.8 803.8,81.5 836.9,81.3 870.0,81.3" fill="none" stroke="#c23b22" stroke-width="2.2"/><polyline points="75.0,408.8 108.1,407.3 141.2,398.2 174.4,377.6 207.5,345.1 240.6,302.9 273.8,254.8 306.9,205.7 340.0,160.6 373.1,123.9 406.2,98.5 439.4,85.1 472.5,81.3 505.6,81.2 538.8,81.2 571.9,81.2 605.0,82.9 638.1,85.3 671.2,84.8 704.4,83.4 737.5,82.4 770.6,81.8 803.8,81.5 836.9,81.3 870.0,81.3" fill="none" stroke="#2a6fbb" stroke-width="2.2"/><text x="450.0" y="486" text-anchor="middle" font-family="Arial" font-size="14">Time [s]</text><text x="18" y="250.0" text-anchor="middle" transform="rotate(-90 18 250.0)" font-family="Arial" font-size="14">Angle [rad]</text><line x1="90" y1="75" x2="118" y2="75" stroke="#444444" stroke-width="3"/><text x="126" y="79" font-family="Arial" font-size="13">Reference</text><line x1="90" y1="97" x2="118" y2="97" stroke="#c23b22" stroke-width="3"/><text x="126" y="101" font-family="Arial" font-size="13">Feedback only</text><line x1="90" y1="119" x2="118" y2="119" stroke="#2a6fbb" stroke-width="3"/><text x="126" y="123" font-family="Arial" font-size="13">2-DOF</text></svg>