<svg xmlns="http://www.w3.org/2000/svg" viewBox="0 0 900 500" role="img"><rect width="100%" height="100%" fill="white"/><text x="450.0" y="28" text-anchor="middle" font-family="Arial" font-size="22" font-weight="bold">Magnetic-levitation reference tracking</text><rect x="75" y="55" width="795" height="380" fill="none" stroke="#333"/><line x1="75.0" y1="55" x2="75.0" y2="435" stroke="#ddd"/><line x1="75" y1="55.0" x2="870" y2="55.0" stroke="#ddd"/><text x="75.0" y="457" text-anchor="middle" font-family="Arial" font-size="12">0</text><text x="65" y="59.0" text-anchor="end" font-family="Arial" font-size="12">0.54</text><line x1="234.0" y1="55" x2="234.0" y2="435" stroke="#ddd"/><line x1="75" y1="131.0" x2="870" y2="131.0" stroke="#ddd"/><text x="234.0" y="457" text-anchor="middle" font-family="Arial" font-size="12">0.096</text><text x="65" y="135.0" text-anchor="end" font-family="Arial" font-size="12">0.42</text><line x1="393.0" y1="55" x2="393.0" y2="435" stroke="#ddd"/><line x1="75" y1="207.0" x2="870" y2="207.0" stroke="#ddd"/><text x="393.0" y="457" text-anchor="middle" font-family="Arial" font-size="12">0.19</text><text x="65" y="211.0" text-anchor="end" font-family="Arial" font-size="12">0.31</text><line x1="552.0" y1="55" x2="552.0" y2="435" stroke="#ddd"/><line x1="75" y1="283.0" x2="870" y2="283.0" stroke="#ddd"/><text x="552.0" y="457" text-anchor="middle" font-family="Arial" font-size="12">0.29</text><text x="65" y="287.0" text-anchor="end" font-family="Arial" font-size="12">0.19</text><line x1="711.0" y1="55" x2="711.0" y2="435" stroke="#ddd"/><line x1="75" y1="359.0" x2="870" y2="359.0" stroke="#ddd"/><text x="711.0" y="457" text-anchor="middle" font-family="Arial" font-size="12">0.39</text><text x="65" y="363.0" text-anchor="end" font-family="Arial" font-size="12">0.076</text><line x1="870.0" y1="55" x2="870.0" y2="435" stroke="#ddd"/><line x1="75" y1="435.0" x2="870" y2="435.0" stroke="#ddd"/><text x="870.0" y="457" text-anchor="middle" font-family="Arial" font-size="12">0.48</text><text x="65" y="439.0" text-anchor="end" font-family="Arial" font-size="12">-0.04</text><polyline points="75.0,408.8 108.1,408.8 141.2,408.8 174.4,81.2 207.5,81.2 240.6,81.2 273.8,81.2 306.9,81.2 340.0,81.2 373.1,81.2 406.2,81.2 439.4,81.2 472.5,81.2 505.6,81.2 538.8,81.2 571.9,81.2 605.0,81.2 638.1,81.2 671.2,81.2 704.4,81.2 737.5,81.2 770.6,81.2 803.8,81.2 836.9,81.2 870.0,81.2" fill="none" stroke="#444444" stroke-width="2.2"/><polyline points="75.0,408.8 108.1,408.8 141.2,408.8 174.4,407.7 207.5,389.8 240.6,351.3 273.8,303.1 306.9,255.0 340.0,212.6 373.1,178.0 406.2,151.0 439.4,130.8 472.5,116.0 505.6,105.4 538.8,97.9 571.9,92.7 605.0,89.1 638.1,86.6 671.2,84.9 704.4,83.7 737.5,82.9 770.6,82.4 803.8,82.0 836.9,81.8 870.0,81.6" fill="none" stroke="#c23b22" stroke-width="2.2"/><polyline points="75.0,408.8 108.1,408.8 141.2,408.8 174.4,407.7 207.5,389.8 240.6,351.4 273.8,303.3 306.9,255.3 340.0,212.8 373.1,177.9 406.2,150.7 439.4,130.2 472.5,115.1 505.6,104.4 538.8,96.8 571.9,91.6 605.0,88.0 638.1,85.7 671.2,84.1 704.4,83.0 737.5,82.4 770.6,81.9 803.8,81.7 836.9,81.5 870.0,81.4" fill="none" stroke="#2a6fbb" stroke-width="2.2"/><text x="450.0" y="486" text-anchor="middle" font-family="Arial" font-size="14">Time [s]</text><text x="18" y="250.0" text-anchor="middle" transform="rotate(-90 18 250.0)" font-family="Arial" font-size="14">Gap deviation [mm]</text><line x1="90" y1="75" x2="118" y2="75" stroke="#444444" stroke-width="3"/><text x="126" y="79" font-family="Arial" font-size="13">Reference</text><line x1="90" y1="97" x2="118" y2="97" stroke="#c23b22" stroke-width="3"/><text x="126" y="101" font-family="Arial" font-size="13">Linear model</text><line x1="90" y1="119" x2="118" y2="119" stroke="#2a6fbb" stroke-width="3"/><text x="126" y="123" font-family="Arial" font-size="13">Nonlinear plant</text></svg>