<svg xmlns="http://www.w3.org/2000/svg" viewBox="0 0 900 500" role="img"><rect width="100%" height="100%" fill="white"/><text x="450.0" y="28" text-anchor="middle" font-family="Arial" font-size="22" font-weight="bold">Two-tank PI control and anti-windup</text><rect x="75" y="55" width="795" height="380" fill="none" stroke="#333"/><line x1="75.0" y1="55" x2="75.0" y2="435" stroke="#ddd"/><line x1="75" y1="55.0" x2="870" y2="55.0" stroke="#ddd"/><text x="75.0" y="457" text-anchor="middle" font-family="Arial" font-size="12">0</text><text x="65" y="59.0" text-anchor="end" font-family="Arial" font-size="12">37</text><line x1="234.0" y1="55" x2="234.0" y2="435" stroke="#ddd"/><line x1="75" y1="131.0" x2="870" y2="131.0" stroke="#ddd"/><text x="234.0" y="457" text-anchor="middle" font-family="Arial" font-size="12">1.3e+02</text><text x="65" y="135.0" text-anchor="end" font-family="Arial" font-size="12">31</text><line x1="393.0" y1="55" x2="393.0" y2="435" stroke="#ddd"/><line x1="75" y1="207.0" x2="870" y2="207.0" stroke="#ddd"/><text x="393.0" y="457" text-anchor="middle" font-family="Arial" font-size="12">2.7e+02</text><text x="65" y="211.0" text-anchor="end" font-family="Arial" font-size="12">25</text><line x1="552.0" y1="55" x2="552.0" y2="435" stroke="#ddd"/><line x1="75" y1="283.0" x2="870" y2="283.0" stroke="#ddd"/><text x="552.0" y="457" text-anchor="middle" font-family="Arial" font-size="12">4e+02</text><text x="65" y="287.0" text-anchor="end" font-family="Arial" font-size="12">18</text><line x1="711.0" y1="55" x2="711.0" y2="435" stroke="#ddd"/><line x1="75" y1="359.0" x2="870" y2="359.0" stroke="#ddd"/><text x="711.0" y="457" text-anchor="middle" font-family="Arial" font-size="12">5.4e+02</text><text x="65" y="363.0" text-anchor="end" font-family="Arial" font-size="12">12</text><line x1="870.0" y1="55" x2="870.0" y2="435" stroke="#ddd"/><line x1="75" y1="435.0" x2="870" y2="435.0" stroke="#ddd"/><text x="870.0" y="457" text-anchor="middle" font-family="Arial" font-size="12">6.7e+02</text><text x="65" y="439.0" text-anchor="end" font-family="Arial" font-size="12">5.8</text><polyline points="75.0,384.2 108.1,384.2 141.2,384.2 174.4,384.2 207.5,81.2 240.6,81.2 273.8,384.2 306.9,384.2 340.0,384.2 373.1,384.2 406.2,384.2 439.4,384.2 472.5,384.2 505.6,384.2 538.8,384.2 571.9,384.2 605.0,384.2 638.1,384.2 671.2,384.2 704.4,384.2 737.5,384.2 770.6,384.2 803.8,384.2 836.9,384.2 870.0,384.2" fill="none" stroke="#444444" stroke-width="2.2"/><polyline points="75.0,384.2 108.1,384.2 141.2,384.2 174.4,384.2 207.5,376.6 240.6,341.0 273.8,305.9 306.9,277.1 340.0,275.3 373.1,301.3 406.2,327.9 439.4,344.2 472.5,354.0 505.6,361.1 538.8,366.7 571.9,371.0 605.0,374.3 638.1,376.7 671.2,378.5 704.4,382.1 737.5,389.2 770.6,389.0 803.8,380.9 836.9,378.5 870.0,379.8" fill="none" stroke="#c23b22" stroke-width="2.2"/><polyline points="75.0,384.2 108.1,384.2 141.2,384.2 174.4,384.2 207.5,376.6 240.6,341.0 273.8,313.1 306.9,366.4 340.0,408.0 373.1,408.8 406.2,401.8 439.4,396.7 472.5,393.5 505.6,391.3 538.8,389.6 571.9,388.3 605.0,387.3 638.1,386.5 671.2,386.0 704.4,387.7 737.5,393.4 770.6,392.1 803.8,383.3 836.9,380.4 870.0,381.2" fill="none" stroke="#2a6fbb" stroke-width="2.2"/><text x="450.0" y="486" text-anchor="middle" font-family="Arial" font-size="14">Time [s]</text><text x="18" y="250.0" text-anchor="middle" transform="rotate(-90 18 250.0)" font-family="Arial" font-size="14">Tank-2 level [cm]</text><line x1="90" y1="75" x2="118" y2="75" stroke="#444444" stroke-width="3"/><text x="126" y="79" font-family="Arial" font-size="13">Reference</text><line x1="90" y1="97" x2="118" y2="97" stroke="#c23b22" stroke-width="3"/><text x="126" y="101" font-family="Arial" font-size="13">No anti-windup</text><line x1="90" y1="119" x2="118" y2="119" stroke="#2a6fbb" stroke-width="3"/><text x="126" y="123" font-family="Arial" font-size="13">Back-calculation</text></svg>