<svg xmlns="http://www.w3.org/2000/svg" viewBox="0 0 900 500" role="img">
<rect width="100%" height="100%" fill="white"/>
<text x="450.0" y="28" text-anchor="middle" font-family="Arial" font-size="22" font-weight="bold">Two-tank PI control and anti-windup</text>
<rect x="75" y="55" width="795" height="380" fill="none" stroke="#333"/>
<line x1="75.0" y1="55" x2="75.0" y2="435" stroke="#ddd"/>
<line x1="75" y1="55.0" x2="870" y2="55.0" stroke="#ddd"/>
<text x="75.0" y="457" text-anchor="middle" font-family="Arial" font-size="12">0</text>
<text x="65" y="59.0" text-anchor="end" font-family="Arial" font-size="12">27</text>
<line x1="234.0" y1="55" x2="234.0" y2="435" stroke="#ddd"/>
<line x1="75" y1="131.0" x2="870" y2="131.0" stroke="#ddd"/>
<text x="234.0" y="457" text-anchor="middle" font-family="Arial" font-size="12">1.3e+02</text>
<text x="65" y="135.0" text-anchor="end" font-family="Arial" font-size="12">21</text>
<line x1="393.0" y1="55" x2="393.0" y2="435" stroke="#ddd"/>
<line x1="75" y1="207.0" x2="870" y2="207.0" stroke="#ddd"/>
<text x="393.0" y="457" text-anchor="middle" font-family="Arial" font-size="12">2.7e+02</text>
<text x="65" y="211.0" text-anchor="end" font-family="Arial" font-size="12">15</text>
<line x1="552.0" y1="55" x2="552.0" y2="435" stroke="#ddd"/>
<line x1="75" y1="283.0" x2="870" y2="283.0" stroke="#ddd"/>
<text x="552.0" y="457" text-anchor="middle" font-family="Arial" font-size="12">4e+02</text>
<text x="65" y="287.0" text-anchor="end" font-family="Arial" font-size="12">9.6</text>
<line x1="711.0" y1="55" x2="711.0" y2="435" stroke="#ddd"/>
<line x1="75" y1="359.0" x2="870" y2="359.0" stroke="#ddd"/>
<text x="711.0" y="457" text-anchor="middle" font-family="Arial" font-size="12">5.4e+02</text>
<text x="65" y="363.0" text-anchor="end" font-family="Arial" font-size="12">3.8</text>
<line x1="870.0" y1="55" x2="870.0" y2="435" stroke="#ddd"/>
<line x1="75" y1="435.0" x2="870" y2="435.0" stroke="#ddd"/>
<text x="870.0" y="457" text-anchor="middle" font-family="Arial" font-size="12">6.7e+02</text>
<text x="65" y="439.0" text-anchor="end" font-family="Arial" font-size="12">-2</text>
<polyline points="75.0,277.8 108.1,277.8 141.2,277.8 174.4,277.8 207.5,81.2 240.6,81.2 273.8,81.2 306.9,81.2 340.0,81.2 373.1,81.2 406.2,81.2 439.4,277.8 472.5,277.8 505.6,277.8 538.8,277.8 571.9,277.8 605.0,277.8 638.1,277.8 671.2,277.8 704.4,277.8 737.5,277.8 770.6,277.8 803.8,277.8 836.9,277.8 870.0,277.8" fill="none" stroke="#444444" stroke-width="2.2"/>
<polyline points="75.0,408.8 108.1,346.0 141.2,306.7 174.4,294.7 207.5,282.9 240.6,241.3 273.8,201.2 306.9,167.5 340.0,139.5 373.1,116.2 406.2,96.8 439.4,85.5 472.5,137.4 505.6,196.0 538.8,223.8 571.9,236.0 605.0,244.9 638.1,259.1 671.2,268.9 704.4,269.6 737.5,264.0 770.6,264.6 803.8,268.0 836.9,270.8 870.0,272.6" fill="none" stroke="#c23b22" stroke-width="2.2"/>
<polyline points="75.0,408.8 108.1,346.4 141.2,307.7 174.4,295.7 207.5,283.7 240.6,241.9 273.8,201.7 306.9,167.9 340.0,139.8 373.1,116.5 406.2,98.0 439.4,95.5 472.5,171.1 505.6,257.7 538.8,284.8 571.9,283.3 605.0,279.9 638.1,285.1 671.2,288.2 704.4,284.1 737.5,275.1 770.6,273.1 803.8,274.4 836.9,275.5 870.0,276.2" fill="none" stroke="#2a6fbb" stroke-width="2.2"/>
<text x="450.0" y="486" text-anchor="middle" font-family="Arial" font-size="14">Time [s]</text>
<text x="18" y="250.0" text-anchor="middle" transform="rotate(-90 18 250.0)" font-family="Arial" font-size="14">Tank-2 level [cm]</text>
<line x1="90" y1="75" x2="118" y2="75" stroke="#444444" stroke-width="3"/>
<text x="126" y="79" font-family="Arial" font-size="13">Reference</text>
<line x1="90" y1="97" x2="118" y2="97" stroke="#c23b22" stroke-width="3"/>
<text x="126" y="101" font-family="Arial" font-size="13">No anti-windup</text>
<line x1="90" y1="119" x2="118" y2="119" stroke="#2a6fbb" stroke-width="3"/>
<text x="126" y="123" font-family="Arial" font-size="13">Back-calculation</text>
</svg>
